:FULLY-SPECIFIED
:FORCE-ALL-JOINTS-BE-3DOF
:DEGREES
238
root 5.56165 15.6332 -25.8232 9.69313 23.8425 -7.85821
lfemur -42.2241 35.2577 -6.84956
ltibia 53.8477 -0 0
lfoot -14.3804 8.93211 -0.00309139
ltoes -4.42131 0 0
rfemur -16.3217 -11.7437 5.07039
rtibia 33.1086 -0 0
rfoot -39.5568 -9.0871 0.15847
rtoes 56.632 -0 0
lowerback 1.09245 -2.38113 3.12492
upperback -1.31402 -3.03674 3.7098
thorax -1.92364 -1.52873 2.14823
lowerneck -10.3778 -1.92381 -0.00673554
upperneck 1.46149 -2.54173 -0.302578
head 2.24617 -1.27367 -0.222788
lclavicle -0 0 0
lhumerus -55.2315 -32.8914 122.311
lradius 62.9178 -0 0
lwrist 19.5402 0 0
lhand 5.78055 13.4278 0.0286949
lfingers 0 -0 0
lthumb 31.109 40.7611 0.00995703
rclavicle -0 0 0
rhumerus -34.6386 -23.5277 -69.0848
rradius 100.006 -0 0
rwrist -57.3038 0 0
rhand -9.52234 -21.8095 -0.563981
rfingers 0 -0 0
rthumb 15.9502 -47.8463 1.34966
239
root 5.65072 15.6591 -25.8088 9.48089 25.5105 -8.1511
lfemur -43.2429 35.3468 -8.07462
ltibia 53.9091 0 0
lfoot -14.513 9.37744 0
ltoes -2.10601 0 0
rfemur -14.8992 -10.2826 5.15916
rtibia 32.1184 0 0
rfoot -40.7955 -11.5138 0
rtoes 56.3217 0 0
lowerback 1.02484 -2.4563 3.27099
upperback -1.44752 -3.12374 4.03554
thorax -2.013 -1.57213 2.40466
lowerneck -10.1156 -2.13247 -0.153872
upperneck 1.56112 -2.79665 -0.415299
head 2.23092 -1.40564 -0.245059
lclavicle 6.46299e-14 2.39536e-14 0
lhumerus -55.4307 -31.9108 122.567
lradius 63.2928 0 0
lwrist 19.6704 0 0
lhand 4.50578 12.9986 0
lfingers 7.12502 0 0
lthumb 29.8985 40.6042 0
rclavicle 6.46299e-14 2.39536e-14 0
rhumerus -34.8345 -27.2777 -68.8819
rradius 98.4128 0 0
rwrist -61.62 0 0
rhand -18.9446 -20.7622 0
rfingers 7.12502 0 0
rthumb 7.35864 -770.614 0
240
root 5.76855 15.6977 -25.7952 9.32922 27.3602 -7.8035
lfemur -42.8625 34.2661 -8.798
ltibia 53.1397 -0 0
lfoot -15.0327 8.28167 0.0298581
ltoes 2.41138 -0 0
rfemur -14.0464 -8.44321 4.86218
rtibia 32.7125 -0 0
rfoot -40.8023 -13.9328 0.000869307
rtoes 56.2138 -0 0
lowerback 0.908549 -2.53327 3.08887
upperback -1.44896 -3.23763 3.96496
thorax -1.93965 -1.62682 2.4291
lowerneck -10.0486 -2.53741 -0.144691
upperneck 1.6638 -3.34311 -0.281631
head 2.25494 -1.67348 -0.231701
lclavicle 0 0 0
lhumerus -55.4598 -32.0045 122.552
lradius 63.2315 -0 0
lwrist 19.2555 0 0
lhand 4.44992 12.8505 0.000433326
lfingers 0 -0 0
lthumb 29.8452 40.4656 0.000387091
rclavicle 0 0 0
rhumerus -35.5476 -26.0355 -68.1701
rradius 93.7637 -0 0
rwrist -52.254 0 0
rhand -18.941 -22.3993 -0.000312382
rfingers 0 -0 0
rthumb 7.36215 -52.251 -0.000301711
241
root 5.88637 15.7363 -25.7817 9.18774 29.2107 -7.45541
lfemur -42.4706 33.1895 -9.5209
ltibia 52.3704 -0 0
lfoot -15.5529 7.18568 0.0497709
ltoes 6.92876 -0 0
rfemur -13.2068 -6.59968 4.59405
rtibia 33.3067 -0 0
rfoot -40.8092 -16.3519 0.00144971
rtoes 56.106 -0 0
lowerback 0.792495 -2.61062 2.90689
upperback -1.45026 -3.35153 3.89437
thorax -1.86633 -1.68153 2.45348
lowerneck -9.98173 -2.94235 -0.135981
upperneck 1.76527 -3.8898 -0.148865
head 2.2789 -1.94133 -0.218454
lclavicle 0 0 0
lhumerus -55.489 -32.0982 122.537
lradius 63.1702 -0 0
lwrist 18.8407 0 0
lhand 4.39405 12.7023 0.000722213
lfingers 0 -0 0
lthumb 29.7918 40.3269 0.000645153
rclavicle 0 0 0
rhumerus -36.2362 -24.7857 -67.4827
rradius 89.1146 -0 0
rwrist -42.888 0 0
rhand -18.9373 -24.0363 -0.000520778
rfingers 0 -0 0
rthumb 7.36567 -53.888 -0.000502988
242
root 6.0042 15.7749 -25.7681 9.05671 31.062 -7.10607
lfemur -42.0674 32.1171 -10.2438
ltibia 51.601 -0 0
lfoot -16.0734 6.08955 0.0597296
ltoes 11.4462 -0 0
rfemur -12.3786 -4.75249 4.35391
rtibia 33.9008 -0 0
rfoot -40.8161 -18.7709 0.00174017
rtoes 55.9981 -0 0
lowerback 0.676682 -2.68833 2.72505
upperback -1.45142 -3.46543 3.82377
thorax -1.79302 -1.73628 2.47778
lowerneck -9.91486 -3.34731 -0.127741
upperneck 1.86554 -4.43673 -0.0169775
head 2.3028 -2.20918 -0.205317
lclavicle 0 0 0
lhumerus -55.5181 -32.1919 122.523
lradius 63.1089 -0 0
lwrist 18.4258 0 0
lhand 4.33819 12.5542 0.000866656
lfingers 0 -0 0
lthumb 29.7385 40.1883 0.000774184
rclavicle 0 0 0
rhumerus -36.9018 -23.5286 -66.8184
rradius 84.4655 -0 0
rwrist -33.522 0 0
rhand -18.9337 -25.6734 -0.000625019
rfingers 0 -0 0
rthumb 7.36919 -55.525 -0.000603668
243
root 6.12203 15.8136 -25.7546 8.93646 32.9138 -6.75465
lfemur -41.653 31.049 -10.9673
ltibia 50.8316 -0 0
lfoot -16.5939 4.99338 0.0597296
ltoes 15.9635 -0 0
rfemur -11.5599 -2.90205 4.14104
rtibia 34.4949 -0 0
rfoot -40.8229 -21.19 0.00174017
rtoes 55.8903 -0 0
lowerback 0.561108 -2.76641 2.54337
upperback -1.45244 -3.57933 3.75317
thorax -1.71974 -1.79106 2.50201
lowerneck -9.84801 -3.75228 -0.119971
upperneck 1.96462 -4.98389 0.114053
head 2.32665 -2.47704 -0.192289
lclavicle 0 0 0
lhumerus -55.5473 -32.2856 122.508
lradius 63.0476 -0 0
lwrist 18.011 0 0
lhand 4.28232 12.406 0.000866656
lfingers 0 -0 0
lthumb 29.6852 40.0497 0.000774184
rclavicle 0 0 0
rhumerus -37.5454 -22.2646 -66.1761
rradius 79.8163 -0 0
rwrist -24.156 0 0
rhand -18.93 -27.3105 -0.000625019
rfingers 0 -0 0
rthumb 7.37272 -57.162 -0.000603668
244
root 6.23986 15.8522 -25.741 8.82739 34.7663 -6.40026
lfemur -41.2275 29.9855 -11.6918
ltibia 50.0622 -0 0
lfoot -17.1144 3.89725 0.0497709
ltoes 20.4809 -0 0
rfemur -10.749 -1.04878 3.95486
rtibia 35.089 -0 0
rfoot -40.8298 -23.609 0.00144971
rtoes 55.7824 -0 0
lowerback 0.445775 -2.84485 2.36182
upperback -1.45332 -3.69323 3.68256
thorax -1.64647 -1.84587 2.52618
lowerneck -9.78119 -4.15725 -0.112671
upperneck 2.06253 -5.53127 0.244248
head 2.35044 -2.7449 -0.17937
lclavicle 0 0 0
lhumerus -55.5764 -32.3793 122.493
lradius 62.9863 -0 0
lwrist 17.5961 0 0
lhand 4.22646 12.2579 0.000722213
lfingers 0 -0 0
lthumb 29.6319 39.9111 0.000645153
rclavicle 0 0 0
rhumerus -38.1681 -20.9942 -65.5547
rradius 75.1672 -0 0
rwrist -14.7899 0 0
rhand -18.9264 -28.9476 -0.000520778
rfingers 0 -0 0
rthumb 7.37624 -58.799 -0.000502988
245
root 6.35768 15.8908 -25.7275 8.73004 36.6193 -6.04193
lfemur -40.7912 28.9267 -12.4178
ltibia 49.2929 -0 0
lfoot -17.6346 2.80126 0.0298581
ltoes 24.9983 -0 0
rfemur -9.94424 0.806924 3.79495
rtibia 35.6832 -0 0
rfoot -40.8367 -26.0281 0.000869307
rtoes 55.6746 -0 0
lowerback 0.330683 -2.92366 2.18043
upperback -1.45406 -3.80713 3.61194
thorax -1.57323 -1.90071 2.55027
lowerneck -9.71438 -4.56224 -0.105841
upperneck 2.15929 -6.07887 0.373628
head 2.37417 -3.01277 -0.166559
lclavicle 0 0 0
lhumerus -55.6056 -32.4731 122.479
lradius 62.925 -0 0
lwrist 17.1813 0 0
lhand 4.17059 12.1097 0.000433326
lfingers 0 -0 0
lthumb 29.5785 39.7724 0.000387091
rclavicle 0 0 0
rhumerus -38.7711 -19.7177 -64.953
rradius 70.5181 -0 0
rwrist -5.42393 0 0
rhand -18.9227 -30.5846 -0.000312382
rfingers 0 -0 0
rthumb 7.37976 -60.436 -0.000301711
246
root 6.47551 15.9294 -25.7139 8.64504 38.4728 -5.6786
lfemur -40.3441 27.8728 -13.1456
ltibia 48.5235 0 0
lfoot -18.1543 1.70549 0
ltoes 29.5157 0 0
rfemur -9.14383 2.66469 3.66098
rtibia 36.2773 0 0
rfoot -40.8435 -28.4471 0
rtoes 55.5667 0 0
lowerback 0.215834 -3.00283 1.99918
upperback -1.45466 -3.92103 3.54132
thorax -1.50001 -1.95558 2.5743
lowerneck -9.64758 -4.96723 -0.0994809
upperneck 2.2549 -6.62668 0.502215
head 2.39785 -3.28064 -0.153856
lclavicle -6.12257e-14 -2.68359e-14 0
lhumerus -55.6347 -32.5668 122.464
lradius 62.8637 0 0
lwrist 16.7664 0 0
lhand 4.11473 11.9616 0
lfingers 7.12502 0 0
lthumb 29.5252 39.6338 0
rclavicle -6.12257e-14 -2.68359e-14 0
rhumerus -39.3553 -18.4354 -64.3702
rradius 65.869 0 0
rwrist 3.94208 0 0
rhand -18.9191 -32.2217 0
rfingers 7.12502 0 0
rthumb 7.38327 -782.073 0
247
root 6.57208 15.9662 -25.7115 8.69677 39.8412 -5.0317
lfemur -39.5813 26.9084 -13.7136
ltibia 47.8208 -0 0
lfoot -17.8978 0.233027 -0.0198197
ltoes 32.9078 -0 0
rfemur -10.3043 2.92023 3.32465
rtibia 39.8293 -0 0
rfoot -32.4955 -26.6339 0.850677
rtoes 47.0007 -0 0
lowerback 0.418265 -2.94016 1.56225
upperback -1.35383 -3.84025 3.43762
thorax -1.49332 -1.91175 2.71757
lowerneck -9.6723 -5.37442 -0.370437
upperneck 2.28933 -7.13825 0.530427
head 2.4307 -3.53679 -0.128986
lclavicle -0 0 0
lhumerus -55.0138 -32.7631 122.001
lradius 62.6535 -0 0
lwrist 17.2294 0 0
lhand 4.54796 11.9945 0.000746323
lfingers 0 -0 0
lthumb 29.9382 39.588 -0.000989405
rclavicle -0 0 0
rhumerus -39.8093 -16.7155 -64.5565
rradius 62.2369 -0 0
rwrist 9.62501 0 0
rhand -18.6942 -27.8485 0.0524253
rfingers 0 -0 0
rthumb 7.60033 -57.6912 0.0506956
248
root 6.66865 16.0029 -25.7092 8.7701 41.209 -4.36981
lfemur -38.8142 25.9508 -14.2912
ltibia 47.1181 -0 0
lfoot -17.6408 -1.23951 -0.0330404
ltoes 36.3 -0 0
rfemur -11.4664 3.16891 2.98313
rtibia 43.3814 -0 0
rfoot -24.1228 -24.7161 1.42867
rtoes 38.4348 -0 0
lowerback 0.620199 -2.87595 1.12558
upperback -1.25315 -3.75929 3.33408
thorax -1.48651 -1.86793 2.86085
lowerneck -9.69511 -5.78171 -0.641405
upperneck 2.32355 -7.64983 0.558362
head 2.46345 -3.79296 -0.104256
lclavicle -0 0 0
lhumerus -54.3897 -32.9551 121.534
lradius 62.4432 -0 0
lwrist 17.6923 0 0
lhand 4.98119 12.0274 0.0012439
lfingers 0 -0 0
lthumb 30.3511 39.5423 -0.00164904
rclavicle -0 0 0
rhumerus -40.2652 -14.9971 -64.7553
rradius 58.6049 -0 0
rwrist 15.3079 0 0
rhand -18.4659 -23.4751 0.0875465
rfingers 0 -0 0
rthumb 7.82063 -53.3092 0.0846586
249
root 6.76522 16.0397 -25.7068 8.86647 42.5761 -3.69123
lfemur -38.0425 25.0002 -14.8782
ltibia 46.4154 -0 0
lfoot -17.3836 -2.71209 -0.0396529
ltoes 39.6921 -0 0
rfemur -12.6304 3.41061 2.63654
rtibia 46.9334 -0 0
rfoot -15.7337 -22.734 1.72099
rtoes 29.8688 -0 0
lowerback 0.821627 -2.81021 0.689152
upperback -1.15263 -3.67815 3.23069
thorax -1.4796 -1.82413 3.00412
lowerneck -9.716 -6.18911 -0.912411
upperneck 2.35755 -8.16144 0.586023
head 2.4961 -4.04914 -0.0796656
lclavicle -0 0 0
lhumerus -53.7623 -33.1429 121.064
lradius 62.233 -0 0
lwrist 18.1553 0 0
lhand 5.41442 12.0603 0.00149269
lfingers 0 -0 0
lthumb 30.7641 39.4965 -0.00197886
rclavicle -0 0 0
rhumerus -40.7238 -13.2802 -64.9667
rradius 54.9728 -0 0
rwrist 20.9909 0 0
rhand -18.2356 -19.1017 0.105158
rfingers 0 -0 0
rthumb 8.04288 -48.9271 0.10169
250
root 6.8618 16.0764 -25.7045 8.9875 43.9423 -2.99405
lfemur -37.266 24.0569 -15.4748
ltibia 45.7128 -0 0
lfoot -17.1262 -4.18469 -0.0396529
ltoes 43.0842 -0 0
rfemur -13.7961 3.64523 2.28501
rtibia 50.4855 -0 0
rfoot -7.33898 -20.7304 1.72099
rtoes 21.3029 -0 0
lowerback 1.02254 -2.74294 0.252987
upperback -1.05226 -3.59683 3.12745
thorax -1.47258 -1.78035 3.1474
lowerneck -9.73496 -6.59661 -1.18348
upperneck 2.39136 -8.67305 0.613414
head 2.52865 -4.30534 -0.0552133
lclavicle -0 0 0
lhumerus -53.1319 -33.3263 120.59
lradius 62.0228 -0 0
lwrist 18.6182 0 0
lhand 5.84766 12.0932 0.00149269
lfingers 0 -0 0
lthumb 31.177 39.4508 -0.00197886
rclavicle -0 0 0
rhumerus -41.1859 -11.5651 -65.1907
rradius 51.3408 -0 0
rwrist 26.6738 0 0
rhand -18.0047 -14.7281 0.105158
rfingers 0 -0 0
rthumb 8.26578 -44.5449 0.10169
251
root 6.95837 16.1132 -25.7021 9.13503 45.3072 -2.27617
lfemur -36.4845 23.121 -16.0811
ltibia 45.0101 -0 0
lfoot -16.869 -5.65727 -0.0330404
ltoes 46.4763 -0 0
rfemur -14.9635 3.87266 1.92868
rtibia 54.0375 -0 0
rfoot 1.05006 -18.7483 1.42867
rtoes 12.7369 -0 0
lowerback 1.22292 -2.67414 -0.182915
upperback -0.952052 -3.51532 3.02436
thorax -1.46545 -1.73659 3.29068
lowerneck -9.75199 -7.00419 -1.45465
upperneck 2.42496 -9.18469 0.640537
head 2.5611 -4.56155 -0.0308986
lclavicle -0 0 0
lhumerus -52.4983 -33.5053 120.113
lradius 61.8126 -0 0
lwrist 19.0812 0 0
lhand 6.28089 12.1261 0.0012439
lfingers 0 -0 0
lthumb 31.59 39.405 -0.00164904
rclavicle -0 0 0
rhumerus -41.6521 -9.85177 -65.4275
rradius 47.7087 -0 0
rwrist 32.3567 0 0
rhand -17.7744 -10.3547 0.0875465
rfingers 0 -0 0
rthumb 8.48803 -40.1628 0.0846586
